<?xml version="1.0" encoding="us-ascii" standalone="no"?><svg xmlns="http://www.w3.org/2000/svg" xmlns:xlink="http://www.w3.org/1999/xlink" contentStyleType="text/css" height="398.3px" preserveAspectRatio="none" style="width:496px;height:398px;background:#FFFFFF;" version="1.1" viewBox="0 0 496 398" width="497px" zoomAndPan="magnify"><defs/><g><!--cluster ModelPackage--><g id="cluster_ModelPackage"><rect fill="#FFFFFF" height="354.2" rx="1.75" ry="1.75" style="stroke:#181818;stroke-width:0.6999999999999998;" width="487.9" x="4.9" y="39.9"/><text fill="#000000" font-family="sans-serif" font-size="9.8" font-weight="bold" lengthAdjust="spacing" textLength="30.8" x="233.45" y="51.8752">Model</text></g><!--class ReadOnlyAddressBook--><g id="elem_ReadOnlyAddressBook"><rect codeLine="7" fill="#9D0012" height="30.4609" id="ReadOnlyAddressBook" rx="1.75" ry="1.75" style="stroke:#FFFFFF;stroke-width:0.6999999999999998;" width="110.6" x="114.1" y="65.8"/><text fill="#FFFFFF" font-family="Arial" font-size="10.5" lengthAdjust="spacing" textLength="50.4" x="144.2" y="78.8054">&#171;interface&#187;</text><text fill="#FFFFFF" font-family="Arial" font-size="10.5" lengthAdjust="spacing" textLength="106.4" x="116.2" y="90.5358">ReadOnlyAddressBook</text></g><!--class ReadOnlyUserPrefs--><g id="elem_ReadOnlyUserPrefs"><rect codeLine="8" fill="#9D0012" height="30.4609" id="ReadOnlyUserPrefs" rx="1.75" ry="1.75" style="stroke:#FFFFFF;stroke-width:0.6999999999999998;" width="95.9" x="330.75" y="65.8"/><text fill="#FFFFFF" font-family="Arial" font-size="10.5" lengthAdjust="spacing" textLength="50.4" x="353.5" y="78.8054">&#171;interface&#187;</text><text fill="#FFFFFF" font-family="Arial" font-size="10.5" lengthAdjust="spacing" textLength="91.7" x="332.85" y="90.5358">ReadOnlyUserPrefs</text></g><!--class Model--><g id="elem_Model"><rect codeLine="9" fill="#9D0012" height="30.4609" id="Model" rx="1.75" ry="1.75" style="stroke:#FFFFFF;stroke-width:0.6999999999999998;" width="54.6" x="251.3" y="65.8"/><text fill="#FFFFFF" font-family="Arial" font-size="10.5" lengthAdjust="spacing" textLength="50.4" x="253.4" y="78.8054">&#171;interface&#187;</text><text fill="#FFFFFF" font-family="Arial" font-size="10.5" lengthAdjust="spacing" textLength="26.6" x="265.3" y="90.5358">Model</text></g><!--class AddressBook--><g id="elem_AddressBook"><rect codeLine="10" fill="#9D0012" height="18.7305" id="AddressBook" rx="1.75" ry="1.75" style="stroke:#FFFFFF;stroke-width:0.6999999999999998;" width="65.1" x="135.45" y="138.6"/><text fill="#FFFFFF" font-family="Arial" font-size="10.5" lengthAdjust="spacing" textLength="60.9" x="137.55" y="151.6054">AddressBook</text></g><!--class ModelManager--><g id="elem_ModelManager"><rect codeLine="11" fill="#9D0012" height="18.7305" id="ModelManager" rx="1.75" ry="1.75" style="stroke:#FFFFFF;stroke-width:0.6999999999999998;" width="70" x="259" y="138.6"/><text fill="#FFFFFF" font-family="Arial" font-size="10.5" lengthAdjust="spacing" textLength="65.8" x="261.1" y="151.6054">ModelManager</text></g><!--class UserPrefs--><g id="elem_UserPrefs"><rect codeLine="12" fill="#9D0012" height="18.7305" id="UserPrefs" rx="1.75" ry="1.75" style="stroke:#FFFFFF;stroke-width:0.6999999999999998;" width="50.4" x="353.5" y="138.6"/><text fill="#FFFFFF" font-family="Arial" font-size="10.5" lengthAdjust="spacing" textLength="46.2" x="355.6" y="151.6054">UserPrefs</text></g><!--class UniquePersonList--><g id="elem_UniquePersonList"><rect codeLine="14" fill="#9D0012" height="18.7305" id="UniquePersonList" rx="1.75" ry="1.75" style="stroke:#FFFFFF;stroke-width:0.6999999999999998;" width="84.7" x="124.95" y="199.5"/><text fill="#FFFFFF" font-family="Arial" font-size="10.5" lengthAdjust="spacing" textLength="80.5" x="127.05" y="212.5054">UniquePersonList</text></g><!--class Person--><g id="elem_Person"><rect codeLine="15" fill="#9D0012" height="18.7305" id="Person" rx="1.75" ry="1.75" style="stroke:#FFFFFF;stroke-width:0.6999999999999998;" width="37.1" x="233.45" y="303.1"/><text fill="#FFFFFF" font-family="Arial" font-size="10.5" lengthAdjust="spacing" textLength="32.9" x="235.55" y="316.1054">Person</text></g><!--class Email--><g id="elem_Email"><rect codeLine="16" fill="#9D0012" height="18.7305" id="Email" rx="1.75" ry="1.75" style="stroke:#FFFFFF;stroke-width:0.6999999999999998;" width="35" x="135.1" y="364"/><text fill="#FFFFFF" font-family="Arial" font-size="10.5" lengthAdjust="spacing" textLength="25.9" x="139.65" y="377.0054">Email</text></g><!--class Name--><g id="elem_Name"><rect codeLine="17" fill="#9D0012" height="18.7305" id="Name" rx="1.75" ry="1.75" style="stroke:#FFFFFF;stroke-width:0.6999999999999998;" width="35" x="16.1" y="364"/><text fill="#FFFFFF" font-family="Arial" font-size="10.5" lengthAdjust="spacing" textLength="27.3" x="19.95" y="377.0054">Name</text></g><!--class Phone--><g id="elem_Phone"><rect codeLine="18" fill="#9D0012" height="18.7305" id="Phone" rx="1.75" ry="1.75" style="stroke:#FFFFFF;stroke-width:0.6999999999999998;" width="35" x="75.6" y="364"/><text fill="#FFFFFF" font-family="Arial" font-size="10.5" lengthAdjust="spacing" textLength="29.4" x="78.4" y="377.0054">Phone</text></g><!--class Company--><g id="elem_Company"><rect codeLine="19" fill="#9D0012" height="18.7305" id="Company" rx="1.75" ry="1.75" style="stroke:#FFFFFF;stroke-width:0.6999999999999998;" width="48.3" x="194.95" y="364"/><text fill="#FFFFFF" font-family="Arial" font-size="10.5" lengthAdjust="spacing" textLength="44.1" x="197.05" y="377.0054">Company</text></g><!--class Job--><g id="elem_Job"><rect codeLine="20" fill="#9D0012" height="18.7305" id="Job" rx="1.75" ry="1.75" style="stroke:#FFFFFF;stroke-width:0.6999999999999998;" width="35" x="268.1" y="364"/><text fill="#FFFFFF" font-family="Arial" font-size="10.5" lengthAdjust="spacing" textLength="16.1" x="277.55" y="377.0054">Job</text></g><!--class Tag--><g id="elem_Tag"><rect codeLine="21" fill="#9D0012" height="18.7305" id="Tag" rx="1.75" ry="1.75" style="stroke:#FFFFFF;stroke-width:0.6999999999999998;" width="35" x="327.6" y="364"/><text fill="#FFFFFF" font-family="Arial" font-size="10.5" lengthAdjust="spacing" textLength="17.5" x="336.35" y="377.0054">Tag</text></g><!--class Mark--><g id="elem_Mark"><rect codeLine="22" fill="#9D0012" height="18.7305" id="Mark" rx="1.75" ry="1.75" style="stroke:#FFFFFF;stroke-width:0.6999999999999998;" width="35" x="387.1" y="364"/><text fill="#FFFFFF" font-family="Arial" font-size="10.5" lengthAdjust="spacing" textLength="21.7" x="393.75" y="377.0054">Mark</text></g><!--class LastModifiedDateTime--><g id="elem_LastModifiedDateTime"><rect codeLine="23" fill="#9D0012" height="18.7305" id="LastModifiedDateTime" rx="1.75" ry="1.75" style="stroke:#FFFFFF;stroke-width:0.6999999999999998;" width="105.7" x="103.25" y="303.1"/><text fill="#FFFFFF" font-family="Arial" font-size="10.5" lengthAdjust="spacing" textLength="101.5" x="105.35" y="316.1054">LastModifiedDateTime</text></g><!--class Note--><g id="elem_Note"><rect codeLine="24" fill="#9D0012" height="18.7305" id="Note" rx="1.75" ry="1.75" style="stroke:#FFFFFF;stroke-width:0.6999999999999998;" width="35" x="446.6" y="364"/><text fill="#FFFFFF" font-family="Arial" font-size="10.5" lengthAdjust="spacing" textLength="21" x="453.6" y="377.0054">Note</text></g><!--class Schedule--><g id="elem_Schedule"><rect codeLine="25" fill="#9D0012" height="18.7305" id="Schedule" rx="1.75" ry="1.75" style="stroke:#FFFFFF;stroke-width:0.6999999999999998;" width="46.9" x="394.45" y="303.1"/><text fill="#FFFFFF" font-family="Arial" font-size="10.5" lengthAdjust="spacing" textLength="42.7" x="396.55" y="316.1054">Schedule</text></g><!--class ScheduleName--><g id="elem_ScheduleName"><rect codeLine="26" fill="#9D0012" height="18.7305" id="ScheduleName" rx="1.75" ry="1.75" style="stroke:#FFFFFF;stroke-width:0.6999999999999998;" width="74.2" x="295.4" y="303.1"/><text fill="#FFFFFF" font-family="Arial" font-size="10.5" lengthAdjust="spacing" textLength="70" x="297.5" y="316.1054">ScheduleName</text></g><!--class I--><g id="elem_I"><rect codeLine="28" fill="#FFFFFF" height="18.7305" id="I" rx="1.75" ry="1.75" style="stroke:#FFFFFF;stroke-width:0.6999999999999998;" width="35" x="234.5" y="199.5"/><text fill="#FFFFFF" font-family="Arial" font-size="10.5" lengthAdjust="spacing" textLength="2.1" x="250.95" y="212.5054">I</text></g><!--class HiddenOutside--><g id="elem_HiddenOutside"><rect codeLine="31" fill="#FFFFFF" height="18.7305" id="HiddenOutside" rx="1.75" ry="1.75" style="stroke:#FFFFFF;stroke-width:0.6999999999999998;" width="71.4" x="242.9" y="4.9"/><text fill="#FFFFFF" font-family="Arial" font-size="10.5" lengthAdjust="spacing" textLength="67.2" x="245" y="17.9054">HiddenOutside</text></g><!--link HiddenOutside to Model--><g id="link_HiddenOutside_Model"><path codeLine="32" d="M278.6,23.877 C278.6,34.552 278.6,48.496 278.6,61.362 " fill="none" id="HiddenOutside-to-Model" style="stroke:#9D0012;stroke-width:0.7699999999999999;stroke-dasharray:7.0,7.0;"/><polygon fill="#9D0012" points="278.6,65.562,281.4,59.262,278.6,62.062,275.8,59.262,278.6,65.562" style="stroke:#9D0012;stroke-width:0.7699999999999999;"/></g><!--reverse link ReadOnlyAddressBook to AddressBook--><g id="link_ReadOnlyAddressBook_AddressBook"><path codeLine="34" d="M168.8114,109.351 C168.5314,122.245 168.413,127.89 168.189,138.586 " fill="none" id="ReadOnlyAddressBook-backto-AddressBook" style="stroke:#9D0012;stroke-width:0.7699999999999999;stroke-dasharray:7.0,7.0;"/><polygon fill="none" points="169.085,96.754,164.6124,109.2598,173.0105,109.4422,169.085,96.754" style="stroke:#9D0012;stroke-width:0.7699999999999999;"/></g><!--reverse link Model to ModelManager--><g id="link_Model_ModelManager"><path codeLine="36" d="M284.9826,109.0182 C288.0206,121.9122 289.422,127.89 291.935,138.586 " fill="none" id="Model-backto-ModelManager" style="stroke:#9D0012;stroke-width:0.7699999999999999;stroke-dasharray:7.0,7.0;"/><polygon fill="none" points="282.093,96.754,280.8945,109.9814,289.0707,108.055,282.093,96.754" style="stroke:#9D0012;stroke-width:0.7699999999999999;"/></g><!--link Model to ReadOnlyUserPrefs--><g id="link_Model_ReadOnlyUserPrefs"><path codeLine="37" d="M305.97,81.2 C314.209,81.2 318.248,81.2 326.487,81.2 " fill="none" id="Model-to-ReadOnlyUserPrefs" style="stroke:#9D0012;stroke-width:0.7699999999999999;stroke-dasharray:7.0,7.0;"/><polygon fill="#9D0012" points="330.687,81.2,324.387,78.4,327.187,81.2,324.387,84,330.687,81.2" style="stroke:#9D0012;stroke-width:0.7699999999999999;"/></g><!--reverse link ReadOnlyAddressBook to Model--><g id="link_ReadOnlyAddressBook_Model"><path codeLine="38" d="M229.054,81.2 C237.804,81.2 242.347,81.2 251.097,81.2 " fill="none" id="ReadOnlyAddressBook-backto-Model" style="stroke:#9D0012;stroke-width:0.7699999999999999;stroke-dasharray:7.0,7.0;"/><polygon fill="#9D0012" points="224.854,81.2,231.154,84,228.354,81.2,231.154,78.4,224.854,81.2" style="stroke:#9D0012;stroke-width:0.7699999999999999;"/></g><!--reverse link AddressBook to ModelManager--><g id="link_AddressBook_ModelManager"><path codeLine="39" d="M204.932,148.05 C224.301,148.05 239.47,148.05 258.839,148.05 " fill="none" id="AddressBook-backto-ModelManager" style="stroke:#9D0012;stroke-width:0.7699999999999999;"/><polygon fill="#9D0012" points="200.732,148.05,207.032,150.85,204.232,148.05,207.032,145.25,200.732,148.05" style="stroke:#9D0012;stroke-width:0.7699999999999999;"/><text fill="#000000" font-family="sans-serif" font-size="9.1" font-weight="bold" lengthAdjust="spacing" textLength="4.9" x="206.1192" y="145.0873">1</text></g><!--link ModelManager to UserPrefs--><g id="link_ModelManager_UserPrefs"><path codeLine="40" d="M329.07,148.05 C337.211,148.05 341.159,148.05 349.3,148.05 " fill="none" id="ModelManager-to-UserPrefs" style="stroke:#9D0012;stroke-width:0.7699999999999999;"/><polygon fill="#9D0012" points="353.5,148.05,347.2,145.25,350,148.05,347.2,150.85,353.5,148.05" style="stroke:#9D0012;stroke-width:0.7699999999999999;"/><text fill="#000000" font-family="sans-serif" font-size="9.1" font-weight="bold" lengthAdjust="spacing" textLength="4.9" x="342.8972" y="144.7811">1</text></g><!--reverse link ReadOnlyUserPrefs to UserPrefs--><g id="link_ReadOnlyUserPrefs_UserPrefs"><path codeLine="41" d="M378.7,109.354 C378.7,122.248 378.7,127.89 378.7,138.586 " fill="none" id="ReadOnlyUserPrefs-backto-UserPrefs" style="stroke:#9D0012;stroke-width:0.7699999999999999;stroke-dasharray:7.0,7.0;"/><polygon fill="none" points="378.7,96.754,374.5,109.354,382.9,109.354,378.7,96.754" style="stroke:#9D0012;stroke-width:0.7699999999999999;"/></g><!--link AddressBook to UniquePersonList--><g id="link_AddressBook_UniquePersonList"><path codeLine="43" d="M167.7957,165.9274 C167.6627,177.1764 167.5876,183.9673 167.4546,195.2373 " fill="none" id="AddressBook-UniquePersonList" style="stroke:#9D0012;stroke-width:0.7699999999999999;"/><polygon fill="#9D0012" points="167.895,157.528,165.0455,161.6946,167.7957,165.9274,170.6452,161.7608,167.895,157.528" style="stroke:#9D0012;stroke-width:0.7699999999999999;"/><polygon fill="#9D0012" points="167.405,199.437,170.2791,193.1705,167.4463,195.9372,164.6795,193.1044,167.405,199.437" style="stroke:#9D0012;stroke-width:0.7699999999999999;"/><text fill="#000000" font-family="sans-serif" font-size="9.1" font-weight="bold" lengthAdjust="spacing" textLength="4.9" x="161.611" y="191.5327">1</text></g><!--link AddressBook to Person--><g id="link_AddressBook_Person"><path codeLine="44" d="M144.6031,162.0428 C124.0301,174.5938 99.841,194.285 112.7,218.4 C138.53,266.84 197.8894,293.1973 229.4874,304.4743 " fill="none" id="AddressBook-Person" style="stroke:#9D0012;stroke-width:0.7699999999999999;"/><polygon fill="#9D0012" points="151.774,157.668,146.7303,157.4651,144.6031,162.0428,149.6468,162.2457,151.774,157.668" style="stroke:#9D0012;stroke-width:0.7699999999999999;"/><polygon fill="#9D0012" points="233.443,305.886,228.4507,301.1313,230.1466,304.7096,226.5684,306.4055,233.443,305.886" style="stroke:#9D0012;stroke-width:0.7699999999999999;"/><text fill="#000000" font-family="sans-serif" font-size="9.1" font-weight="bold" lengthAdjust="spacing" textLength="67.2" x="159.8566" y="295.3647">detailedPerson</text></g><!--link UniquePersonList to Person--><g id="link_UniquePersonList_Person"><path codeLine="45" d="M174.671,218.54 C190.687,237.867 225.849,280.2942 241.907,299.6702 " fill="none" id="UniquePersonList-to-Person" style="stroke:#9D0012;stroke-width:0.7699999999999999;"/><polygon fill="#9D0012" points="244.587,302.904,242.7228,296.2666,242.3536,300.2092,238.4111,299.84,244.587,302.904" style="stroke:#9D0012;stroke-width:0.7699999999999999;"/></g><!--link Person to Name--><g id="link_Person_Name"><path codeLine="46" d="M225.3664,320.8606 C221.3274,322.0016 225.169,320.908 221.2,322 C151.053,341.271 133.028,344.288 63,364 C59.206,365.071 59.1805,365.0556 55.3235,366.1966 " fill="none" id="Person-Name" style="stroke:#9D0012;stroke-width:0.7699999999999999;"/><polygon fill="#9D0012" points="233.45,318.577,228.647,317.0243,225.3664,320.8606,230.1694,322.4133,233.45,318.577" style="stroke:#9D0012;stroke-width:0.7699999999999999;"/><polygon fill="#9D0012" points="51.296,367.388,58.1315,368.2858,54.6522,366.3951,56.5429,362.9159,51.296,367.388" style="stroke:#9D0012;stroke-width:0.7699999999999999;"/></g><!--link Person to Phone--><g id="link_Person_Phone"><path codeLine="47" d="M225.2824,323.2515 C194.2864,334.8575 144.8081,353.3848 114.6451,364.6828 " fill="none" id="Person-Phone" style="stroke:#9D0012;stroke-width:0.7699999999999999;"/><polygon fill="#9D0012" points="233.149,320.306,228.2338,319.1566,225.2824,323.2515,230.1975,324.401,233.149,320.306" style="stroke:#9D0012;stroke-width:0.7699999999999999;"/><polygon fill="#9D0012" points="110.712,366.156,117.5939,366.5683,113.9896,364.9283,115.6296,361.3241,110.712,366.156" style="stroke:#9D0012;stroke-width:0.7699999999999999;"/></g><!--link Person to Email--><g id="link_Person_Email"><path codeLine="48" d="M230.1273,326.3419 C211.3323,337.5909 189.7545,350.5095 170.9315,361.7795 " fill="none" id="Person-Email" style="stroke:#9D0012;stroke-width:0.7699999999999999;"/><polygon fill="#9D0012" points="237.335,322.028,232.2932,321.7824,230.1273,326.3419,235.1691,326.5875,237.335,322.028" style="stroke:#9D0012;stroke-width:0.7699999999999999;"/><polygon fill="#9D0012" points="167.328,363.937,174.1716,363.103,170.3309,362.1391,171.2949,358.2984,167.328,363.937" style="stroke:#9D0012;stroke-width:0.7699999999999999;"/></g><!--link Person to Company--><g id="link_Person_Company"><path codeLine="49" d="M243.0793,329.3802 C236.8633,340.6292 232.2339,348.9912 226.0039,360.2612 " fill="none" id="Person-Company" style="stroke:#9D0012;stroke-width:0.7699999999999999;"/><polygon fill="#9D0012" points="247.142,322.028,242.6599,324.3499,243.0793,329.3802,247.5614,327.0583,247.142,322.028" style="stroke:#9D0012;stroke-width:0.7699999999999999;"/><polygon fill="#9D0012" points="223.972,363.937,229.4704,359.778,225.6653,360.8739,224.5694,357.0687,223.972,363.937" style="stroke:#9D0012;stroke-width:0.7699999999999999;"/></g><!--link Person to Job--><g id="link_Person_Job"><path codeLine="50" d="M261.0882,329.3413 C267.4442,340.5903 272.1951,349.0097 278.5581,360.2797 " fill="none" id="Person-Job" style="stroke:#9D0012;stroke-width:0.7699999999999999;"/><polygon fill="#9D0012" points="256.956,322.028,256.5843,327.0621,261.0882,329.3413,261.4599,324.3073,256.956,322.028" style="stroke:#9D0012;stroke-width:0.7699999999999999;"/><polygon fill="#9D0012" points="280.623,363.937,279.9638,357.0744,278.9022,360.8892,275.0874,359.8276,280.623,363.937" style="stroke:#9D0012;stroke-width:0.7699999999999999;"/></g><!--link Person to Tag--><g id="link_Person_Tag"><path codeLine="51" d="M272.8124,326.5509 C290.4174,337.7999 310.1385,350.4045 327.7645,361.6745 " fill="none" id="Person-Tag" style="stroke:#9D0012;stroke-width:0.7699999999999999;"/><polygon fill="#9D0012" points="265.734,322.028,267.7656,326.6489,272.8124,326.5509,270.7808,321.93,265.734,322.028" style="stroke:#9D0012;stroke-width:0.7699999999999999;"/><polygon fill="#9D0012" points="331.303,363.937,327.5036,358.1842,328.3542,362.0516,324.4869,362.9022,331.303,363.937" style="stroke:#9D0012;stroke-width:0.7699999999999999;"/><text fill="#000000" font-family="sans-serif" font-size="9.1" font-weight="bold" lengthAdjust="spacing" textLength="3.5" x="321.8757" y="356.0327">*</text></g><!--link Person to Mark--><g id="link_Person_Mark"><path codeLine="52" d="M278.5369,323.5961 C308.2239,335.1741 353.9759,353.0102 383.0049,364.3292 " fill="none" id="Person-Mark" style="stroke:#9D0012;stroke-width:0.7699999999999999;"/><polygon fill="#9D0012" points="270.711,320.544,273.6066,324.6787,278.5369,323.5961,275.6413,319.4614,270.711,320.544" style="stroke:#9D0012;stroke-width:0.7699999999999999;"/><polygon fill="#9D0012" points="386.918,365.855,382.0656,360.9576,383.6571,364.5835,380.0312,366.175,386.918,365.855" style="stroke:#9D0012;stroke-width:0.7699999999999999;"/></g><!--link LastModifiedDateTime to Person--><g id="link_LastModifiedDateTime_Person"><path codeLine="53" d="M213.304,312.55 C221.347,312.55 216.79,312.55 224.833,312.55 " fill="none" id="LastModifiedDateTime-Person" style="stroke:#9D0012;stroke-width:0.7699999999999999;"/><polygon fill="#9D0012" points="209.104,312.55,215.404,315.35,212.604,312.55,215.404,309.75,209.104,312.55" style="stroke:#9D0012;stroke-width:0.7699999999999999;"/><polygon fill="#9D0012" points="233.233,312.55,229.033,309.75,224.833,312.55,229.033,315.35,233.233,312.55" style="stroke:#9D0012;stroke-width:0.7699999999999999;"/></g><!--link Person to Note--><g id="link_Person_Note"><path codeLine="54" d="M278.7139,320.6701 C324.8299,333.4731 432.67,363.419 434.7,364 C438.487,365.092 438.5131,365.0886 442.3631,366.2296 " fill="none" id="Person-Note" style="stroke:#9D0012;stroke-width:0.7699999999999999;"/><polygon fill="#9D0012" points="270.62,318.423,273.9179,322.2445,278.7139,320.6701,275.416,316.8486,270.62,318.423" style="stroke:#9D0012;stroke-width:0.7699999999999999;"/><polygon fill="#9D0012" points="446.39,367.423,441.1453,362.9483,443.0343,366.4285,439.5541,368.3175,446.39,367.423" style="stroke:#9D0012;stroke-width:0.7699999999999999;"/></g><!--link Person to Schedule--><g id="link_Person_Schedule"><path codeLine="55" d="M268.1119,297.4925 C276.3999,290.1775 282.681,286.202 295.75,282.1 C327.215,272.23 338.282,272.895 369.95,282.1 C383.964,286.174 394.5199,293.0956 403.6969,300.4176 " fill="none" id="Person-Schedule" style="stroke:#9D0012;stroke-width:0.7699999999999999;"/><polygon fill="#9D0012" points="261.814,303.051,266.8158,302.371,268.1119,297.4925,263.1101,298.1725,261.814,303.051" style="stroke:#9D0012;stroke-width:0.7699999999999999;"/><polygon fill="#9D0012" points="406.98,303.037,403.8017,296.9191,404.2441,300.8541,400.3091,301.2965,406.98,303.037" style="stroke:#9D0012;stroke-width:0.7699999999999999;"/><text fill="#000000" font-family="sans-serif" font-size="9.1" font-weight="bold" lengthAdjust="spacing" textLength="15.4" x="384.4811" y="295.1327">0..1</text></g><!--link Person to ScheduleName--><g id="link_Person_ScheduleName"><path codeLine="56" d="M278.95,312.55 C287.182,312.55 282.807,312.55 291.032,312.55 " fill="none" id="Person-ScheduleName" style="stroke:#9D0012;stroke-width:0.7699999999999999;"/><polygon fill="#9D0012" points="270.55,312.55,274.75,315.35,278.95,312.55,274.75,309.75,270.55,312.55" style="stroke:#9D0012;stroke-width:0.7699999999999999;"/><polygon fill="#9D0012" points="295.232,312.55,288.932,309.75,291.732,312.55,288.932,315.35,295.232,312.55" style="stroke:#9D0012;stroke-width:0.7699999999999999;"/><text fill="#000000" font-family="sans-serif" font-size="9.1" font-weight="bold" lengthAdjust="spacing" textLength="15.4" x="274.3515" y="323.1177">0..1</text></g><!--reverse link I to Person--><!--link UniquePersonList to I--><!--link Name to Phone--><!--link Phone to Email--><!--link Email to Company--><!--link ModelManager to Person--><!--link ModelManager to Person--><g id="link_ModelManager_Person"><path codeLine="66" d="M301.042,157.626 C303.744,170.947 299.985,196.833 294.7,218.4 C286.951,250.019 276.384,283.0117 265.079,299.4897 " fill="none" id="ModelManager-to-Person-1" style="stroke:#9D0012;stroke-width:0.7699999999999999;"/><polygon fill="#9D0012" points="262.703,302.953,268.5759,299.3421,264.683,300.0669,263.9582,296.174,262.703,302.953" style="stroke:#9D0012;stroke-width:0.7699999999999999;"/></g><!--SRC=[XLHDZvim5BppArnwYnJKt2EaRdQhfagMA4rFtQfoyGEi69lQe2hgns-lRMpMVAoM0xBdZSUFUIFUK9wpZW1IxOr1qdGrYzILyWPBN2CifVXrgMX-vQ0KsYIRQN4dc93ecDq_7BxliaDs3WWvmqhTuVnQIj5nCgT69rt49Q2Z8C0GLlt2ezlj6V8Myv91clwETaOEnTijvIt80kSQVU9dm2JZxFQU4Abxl1FY6Xkb1VmLXIyAv4b2eKRd1_I5qxRZUEZTiUQtskeHS_rXqa7FqXxWz6S79v1Ay0DLhODxm6qUQapzBO-u1i-f1FVhdQWRp6zkzqdySAiBBdqpMFg-3bYrkZTQK23tk8KB7JGVHUkNd_CAICUcMzk0m_RexGVxH7yzz94I0ZphMaLrmdnvZ2P9wfoB0jDGqZN9dtHnYb5efIVs4dsE4adBgatIXHaw0eCYh8Vg8_6r8QvJ56zYz3B9NkTOprSDg-ct16CFltYrzXBJ5CnP15gT0Y0z2TadzZcPdaVcYAkv0rR53Yy4-Wo5I1-s4F7P2Z6Ji70VhsARjH2pYHi0Oskw7BrHXoQ00s1jrkhlaaIxD2JobNeVKKTQVwri-BvrZT7VBtZb6Nwe-yWep75dbddFYxrlzZqlUWidGHvuni5_ArHGfdypG8QvZjcQvGh_0G00]--></g></svg>