<?xml version="1.0" encoding="us-ascii" standalone="no"?><svg xmlns="http://www.w3.org/2000/svg" xmlns:xlink="http://www.w3.org/1999/xlink" contentStyleType="text/css" height="398.3px" preserveAspectRatio="none" style="width:608px;height:398px;background:#FFFFFF;" version="1.1" viewBox="0 0 608 398" width="608.3px" zoomAndPan="magnify"><defs/><g><!--cluster ModelPackage--><g id="cluster_ModelPackage"><rect fill="#FFFFFF" height="354.2" rx="1.75" ry="1.75" style="stroke:#181818;stroke-width:0.6999999999999998;" width="599.2" x="4.9" y="39.9"/><text fill="#000000" font-family="sans-serif" font-size="9.8" font-weight="bold" lengthAdjust="spacing" textLength="30.8" x="289.1" y="51.8752">Model</text></g><!--class ReadOnlyAddressBook--><g id="elem_ReadOnlyAddressBook"><rect codeLine="7" fill="#9D0012" height="30.4609" id="ReadOnlyAddressBook" rx="1.75" ry="1.75" style="stroke:#FFFFFF;stroke-width:0.6999999999999998;" width="110.6" x="147.7" y="65.8"/><text fill="#FFFFFF" font-family="Arial" font-size="10.5" lengthAdjust="spacing" textLength="50.4" x="177.8" y="78.8054">&#171;interface&#187;</text><text fill="#FFFFFF" font-family="Arial" font-size="10.5" lengthAdjust="spacing" textLength="106.4" x="149.8" y="90.5358">ReadOnlyAddressBook</text></g><!--class ReadOnlyUserPrefs--><g id="elem_ReadOnlyUserPrefs"><rect codeLine="8" fill="#9D0012" height="30.4609" id="ReadOnlyUserPrefs" rx="1.75" ry="1.75" style="stroke:#FFFFFF;stroke-width:0.6999999999999998;" width="95.9" x="364.35" y="65.8"/><text fill="#FFFFFF" font-family="Arial" font-size="10.5" lengthAdjust="spacing" textLength="50.4" x="387.1" y="78.8054">&#171;interface&#187;</text><text fill="#FFFFFF" font-family="Arial" font-size="10.5" lengthAdjust="spacing" textLength="91.7" x="366.45" y="90.5358">ReadOnlyUserPrefs</text></g><!--class Model--><g id="elem_Model"><rect codeLine="9" fill="#9D0012" height="30.4609" id="Model" rx="1.75" ry="1.75" style="stroke:#FFFFFF;stroke-width:0.6999999999999998;" width="54.6" x="284.9" y="65.8"/><text fill="#FFFFFF" font-family="Arial" font-size="10.5" lengthAdjust="spacing" textLength="50.4" x="287" y="78.8054">&#171;interface&#187;</text><text fill="#FFFFFF" font-family="Arial" font-size="10.5" lengthAdjust="spacing" textLength="26.6" x="298.9" y="90.5358">Model</text></g><!--class AddressBook--><g id="elem_AddressBook"><rect codeLine="10" fill="#9D0012" height="18.7305" id="AddressBook" rx="1.75" ry="1.75" style="stroke:#FFFFFF;stroke-width:0.6999999999999998;" width="65.1" x="169.05" y="138.6"/><text fill="#FFFFFF" font-family="Arial" font-size="10.5" lengthAdjust="spacing" textLength="60.9" x="171.15" y="151.6054">AddressBook</text></g><!--class ModelManager--><g id="elem_ModelManager"><rect codeLine="11" fill="#9D0012" height="18.7305" id="ModelManager" rx="1.75" ry="1.75" style="stroke:#FFFFFF;stroke-width:0.6999999999999998;" width="70" x="292.6" y="138.6"/><text fill="#FFFFFF" font-family="Arial" font-size="10.5" lengthAdjust="spacing" textLength="65.8" x="294.7" y="151.6054">ModelManager</text></g><!--class UserPrefs--><g id="elem_UserPrefs"><rect codeLine="12" fill="#9D0012" height="18.7305" id="UserPrefs" rx="1.75" ry="1.75" style="stroke:#FFFFFF;stroke-width:0.6999999999999998;" width="50.4" x="387.1" y="138.6"/><text fill="#FFFFFF" font-family="Arial" font-size="10.5" lengthAdjust="spacing" textLength="46.2" x="389.2" y="151.6054">UserPrefs</text></g><!--class UniquePersonList--><g id="elem_UniquePersonList"><rect codeLine="14" fill="#9D0012" height="18.7305" id="UniquePersonList" rx="1.75" ry="1.75" style="stroke:#FFFFFF;stroke-width:0.6999999999999998;" width="84.7" x="158.55" y="199.5"/><text fill="#FFFFFF" font-family="Arial" font-size="10.5" lengthAdjust="spacing" textLength="80.5" x="160.65" y="212.5054">UniquePersonList</text></g><!--class Person--><g id="elem_Person"><rect codeLine="15" fill="#9D0012" height="18.7305" id="Person" rx="1.75" ry="1.75" style="stroke:#FFFFFF;stroke-width:0.6999999999999998;" width="37.1" x="267.05" y="303.1"/><text fill="#FFFFFF" font-family="Arial" font-size="10.5" lengthAdjust="spacing" textLength="32.9" x="269.15" y="316.1054">Person</text></g><!--class Email--><g id="elem_Email"><rect codeLine="16" fill="#9D0012" height="18.7305" id="Email" rx="1.75" ry="1.75" style="stroke:#FFFFFF;stroke-width:0.6999999999999998;" width="35" x="135.1" y="364"/><text fill="#FFFFFF" font-family="Arial" font-size="10.5" lengthAdjust="spacing" textLength="25.9" x="139.65" y="377.0054">Email</text></g><!--class Name--><g id="elem_Name"><rect codeLine="17" fill="#9D0012" height="18.7305" id="Name" rx="1.75" ry="1.75" style="stroke:#FFFFFF;stroke-width:0.6999999999999998;" width="35" x="16.1" y="364"/><text fill="#FFFFFF" font-family="Arial" font-size="10.5" lengthAdjust="spacing" textLength="27.3" x="19.95" y="377.0054">Name</text></g><!--class Phone--><g id="elem_Phone"><rect codeLine="18" fill="#9D0012" height="18.7305" id="Phone" rx="1.75" ry="1.75" style="stroke:#FFFFFF;stroke-width:0.6999999999999998;" width="35" x="75.6" y="364"/><text fill="#FFFFFF" font-family="Arial" font-size="10.5" lengthAdjust="spacing" textLength="29.4" x="78.4" y="377.0054">Phone</text></g><!--class Company--><g id="elem_Company"><rect codeLine="19" fill="#9D0012" height="18.7305" id="Company" rx="1.75" ry="1.75" style="stroke:#FFFFFF;stroke-width:0.6999999999999998;" width="48.3" x="194.95" y="364"/><text fill="#FFFFFF" font-family="Arial" font-size="10.5" lengthAdjust="spacing" textLength="44.1" x="197.05" y="377.0054">Company</text></g><!--class Job--><g id="elem_Job"><rect codeLine="20" fill="#9D0012" height="18.7305" id="Job" rx="1.75" ry="1.75" style="stroke:#FFFFFF;stroke-width:0.6999999999999998;" width="35" x="268.1" y="364"/><text fill="#FFFFFF" font-family="Arial" font-size="10.5" lengthAdjust="spacing" textLength="16.1" x="277.55" y="377.0054">Job</text></g><!--class Tag--><g id="elem_Tag"><rect codeLine="21" fill="#9D0012" height="18.7305" id="Tag" rx="1.75" ry="1.75" style="stroke:#FFFFFF;stroke-width:0.6999999999999998;" width="35" x="329" y="303.1"/><text fill="#FFFFFF" font-family="Arial" font-size="10.5" lengthAdjust="spacing" textLength="17.5" x="337.75" y="316.1054">Tag</text></g><!--class Mark--><g id="elem_Mark"><rect codeLine="22" fill="#9D0012" height="18.7305" id="Mark" rx="1.75" ry="1.75" style="stroke:#FFFFFF;stroke-width:0.6999999999999998;" width="35" x="327.6" y="364"/><text fill="#FFFFFF" font-family="Arial" font-size="10.5" lengthAdjust="spacing" textLength="21.7" x="334.25" y="377.0054">Mark</text></g><!--class LastModifiedDateTime--><g id="elem_LastModifiedDateTime"><rect codeLine="23" fill="#9D0012" height="18.7305" id="LastModifiedDateTime" rx="1.75" ry="1.75" style="stroke:#FFFFFF;stroke-width:0.6999999999999998;" width="105.7" x="136.85" y="303.1"/><text fill="#FFFFFF" font-family="Arial" font-size="10.5" lengthAdjust="spacing" textLength="101.5" x="138.95" y="316.1054">LastModifiedDateTime</text></g><!--class Note--><g id="elem_Note"><rect codeLine="24" fill="#9D0012" height="18.7305" id="Note" rx="1.75" ry="1.75" style="stroke:#FFFFFF;stroke-width:0.6999999999999998;" width="35" x="387.1" y="364"/><text fill="#FFFFFF" font-family="Arial" font-size="10.5" lengthAdjust="spacing" textLength="21" x="394.1" y="377.0054">Note</text></g><!--class Schedule--><g id="elem_Schedule"><rect codeLine="25" fill="#9D0012" height="18.7305" id="Schedule" rx="1.75" ry="1.75" style="stroke:#FFFFFF;stroke-width:0.6999999999999998;" width="46.9" x="446.95" y="364"/><text fill="#FFFFFF" font-family="Arial" font-size="10.5" lengthAdjust="spacing" textLength="42.7" x="449.05" y="377.0054">Schedule</text></g><!--class ScheduleName--><g id="elem_ScheduleName"><rect codeLine="26" fill="#9D0012" height="18.7305" id="ScheduleName" rx="1.75" ry="1.75" style="stroke:#FFFFFF;stroke-width:0.6999999999999998;" width="74.2" x="518.7" y="364"/><text fill="#FFFFFF" font-family="Arial" font-size="10.5" lengthAdjust="spacing" textLength="70" x="520.8" y="377.0054">ScheduleName</text></g><!--class I--><g id="elem_I"><rect codeLine="28" fill="#FFFFFF" height="18.7305" id="I" rx="1.75" ry="1.75" style="stroke:#FFFFFF;stroke-width:0.6999999999999998;" width="35" x="268.1" y="199.5"/><text fill="#FFFFFF" font-family="Arial" font-size="10.5" lengthAdjust="spacing" textLength="2.1" x="284.55" y="212.5054">I</text></g><!--class HiddenOutside--><g id="elem_HiddenOutside"><rect codeLine="31" fill="#FFFFFF" height="18.7305" id="HiddenOutside" rx="1.75" ry="1.75" style="stroke:#FFFFFF;stroke-width:0.6999999999999998;" width="71.4" x="276.5" y="4.9"/><text fill="#FFFFFF" font-family="Arial" font-size="10.5" lengthAdjust="spacing" textLength="67.2" x="278.6" y="17.9054">HiddenOutside</text></g><!--link HiddenOutside to Model--><g id="link_HiddenOutside_Model"><path codeLine="32" d="M312.2,23.877 C312.2,34.552 312.2,48.496 312.2,61.362 " fill="none" id="HiddenOutside-to-Model" style="stroke:#9D0012;stroke-width:0.7699999999999999;stroke-dasharray:7.0,7.0;"/><polygon fill="#9D0012" points="312.2,65.562,315,59.262,312.2,62.062,309.4,59.262,312.2,65.562" style="stroke:#9D0012;stroke-width:0.7699999999999999;"/></g><!--reverse link ReadOnlyAddressBook to AddressBook--><g id="link_ReadOnlyAddressBook_AddressBook"><path codeLine="34" d="M202.4114,109.351 C202.1314,122.245 202.013,127.89 201.789,138.586 " fill="none" id="ReadOnlyAddressBook-backto-AddressBook" style="stroke:#9D0012;stroke-width:0.7699999999999999;stroke-dasharray:7.0,7.0;"/><polygon fill="none" points="202.685,96.754,198.2124,109.2598,206.6105,109.4422,202.685,96.754" style="stroke:#9D0012;stroke-width:0.7699999999999999;"/></g><!--reverse link Model to ModelManager--><g id="link_Model_ModelManager"><path codeLine="36" d="M318.5826,109.0182 C321.6206,121.9122 323.022,127.89 325.535,138.586 " fill="none" id="Model-backto-ModelManager" style="stroke:#9D0012;stroke-width:0.7699999999999999;stroke-dasharray:7.0,7.0;"/><polygon fill="none" points="315.693,96.754,314.4945,109.9814,322.6707,108.055,315.693,96.754" style="stroke:#9D0012;stroke-width:0.7699999999999999;"/></g><!--link Model to ReadOnlyUserPrefs--><g id="link_Model_ReadOnlyUserPrefs"><path codeLine="37" d="M339.57,81.2 C347.809,81.2 351.848,81.2 360.087,81.2 " fill="none" id="Model-to-ReadOnlyUserPrefs" style="stroke:#9D0012;stroke-width:0.7699999999999999;stroke-dasharray:7.0,7.0;"/><polygon fill="#9D0012" points="364.287,81.2,357.987,78.4,360.787,81.2,357.987,84,364.287,81.2" style="stroke:#9D0012;stroke-width:0.7699999999999999;"/></g><!--reverse link ReadOnlyAddressBook to Model--><g id="link_ReadOnlyAddressBook_Model"><path codeLine="38" d="M262.654,81.2 C271.404,81.2 275.947,81.2 284.697,81.2 " fill="none" id="ReadOnlyAddressBook-backto-Model" style="stroke:#9D0012;stroke-width:0.7699999999999999;stroke-dasharray:7.0,7.0;"/><polygon fill="#9D0012" points="258.454,81.2,264.754,84,261.954,81.2,264.754,78.4,258.454,81.2" style="stroke:#9D0012;stroke-width:0.7699999999999999;"/></g><!--reverse link AddressBook to ModelManager--><g id="link_AddressBook_ModelManager"><path codeLine="39" d="M238.532,148.05 C257.901,148.05 273.07,148.05 292.439,148.05 " fill="none" id="AddressBook-backto-ModelManager" style="stroke:#9D0012;stroke-width:0.7699999999999999;"/><polygon fill="#9D0012" points="234.332,148.05,240.632,150.85,237.832,148.05,240.632,145.25,234.332,148.05" style="stroke:#9D0012;stroke-width:0.7699999999999999;"/><text fill="#000000" font-family="sans-serif" font-size="9.1" font-weight="bold" lengthAdjust="spacing" textLength="4.9" x="239.7192" y="145.0873">1</text></g><!--link ModelManager to UserPrefs--><g id="link_ModelManager_UserPrefs"><path codeLine="40" d="M362.67,148.05 C370.811,148.05 374.759,148.05 382.9,148.05 " fill="none" id="ModelManager-to-UserPrefs" style="stroke:#9D0012;stroke-width:0.7699999999999999;"/><polygon fill="#9D0012" points="387.1,148.05,380.8,145.25,383.6,148.05,380.8,150.85,387.1,148.05" style="stroke:#9D0012;stroke-width:0.7699999999999999;"/><text fill="#000000" font-family="sans-serif" font-size="9.1" font-weight="bold" lengthAdjust="spacing" textLength="4.9" x="376.4972" y="144.7811">1</text></g><!--reverse link ReadOnlyUserPrefs to UserPrefs--><g id="link_ReadOnlyUserPrefs_UserPrefs"><path codeLine="41" d="M412.3,109.354 C412.3,122.248 412.3,127.89 412.3,138.586 " fill="none" id="ReadOnlyUserPrefs-backto-UserPrefs" style="stroke:#9D0012;stroke-width:0.7699999999999999;stroke-dasharray:7.0,7.0;"/><polygon fill="none" points="412.3,96.754,408.1,109.354,416.5,109.354,412.3,96.754" style="stroke:#9D0012;stroke-width:0.7699999999999999;"/></g><!--link AddressBook to UniquePersonList--><g id="link_AddressBook_UniquePersonList"><path codeLine="43" d="M201.3957,165.9274 C201.2627,177.1764 201.1876,183.9673 201.0546,195.2373 " fill="none" id="AddressBook-UniquePersonList" style="stroke:#9D0012;stroke-width:0.7699999999999999;"/><polygon fill="#9D0012" points="201.495,157.528,198.6455,161.6946,201.3957,165.9274,204.2452,161.7608,201.495,157.528" style="stroke:#9D0012;stroke-width:0.7699999999999999;"/><polygon fill="#9D0012" points="201.005,199.437,203.8791,193.1705,201.0463,195.9372,198.2795,193.1044,201.005,199.437" style="stroke:#9D0012;stroke-width:0.7699999999999999;"/><text fill="#000000" font-family="sans-serif" font-size="9.1" font-weight="bold" lengthAdjust="spacing" textLength="4.9" x="195.211" y="191.5327">1</text></g><!--link AddressBook to Person--><g id="link_AddressBook_Person"><path codeLine="44" d="M178.2031,162.0428 C157.6301,174.5938 133.441,194.285 146.3,218.4 C172.13,266.84 231.4894,293.1973 263.0874,304.4743 " fill="none" id="AddressBook-Person" style="stroke:#9D0012;stroke-width:0.7699999999999999;"/><polygon fill="#9D0012" points="185.374,157.668,180.3303,157.4651,178.2031,162.0428,183.2468,162.2457,185.374,157.668" style="stroke:#9D0012;stroke-width:0.7699999999999999;"/><polygon fill="#9D0012" points="267.043,305.886,262.0507,301.1313,263.7466,304.7096,260.1684,306.4055,267.043,305.886" style="stroke:#9D0012;stroke-width:0.7699999999999999;"/><text fill="#000000" font-family="sans-serif" font-size="9.1" font-weight="bold" lengthAdjust="spacing" textLength="67.2" x="193.4566" y="295.3647">detailedPerson</text></g><!--link UniquePersonList to Person--><g id="link_UniquePersonList_Person"><path codeLine="45" d="M208.271,218.54 C224.287,237.867 259.449,280.2942 275.507,299.6702 " fill="none" id="UniquePersonList-to-Person" style="stroke:#9D0012;stroke-width:0.7699999999999999;"/><polygon fill="#9D0012" points="278.187,302.904,276.3228,296.2666,275.9536,300.2092,272.0111,299.84,278.187,302.904" style="stroke:#9D0012;stroke-width:0.7699999999999999;"/></g><!--link Person to Name--><g id="link_Person_Name"><path codeLine="46" d="M258.6684,321.0707 C254.7274,322.1767 258.685,321.027 254.8,322 C170.17,343.266 147.497,342.209 63,364 C59.185,364.987 59.1475,364.9433 55.2905,366.0773 " fill="none" id="Person-Name" style="stroke:#9D0012;stroke-width:0.7699999999999999;"/><polygon fill="#9D0012" points="266.756,318.801,261.9557,317.24,258.6684,321.0707,263.4688,322.6317,266.756,318.801" style="stroke:#9D0012;stroke-width:0.7699999999999999;"/><polygon fill="#9D0012" points="51.261,367.262,58.095,368.1712,54.6189,366.2747,56.5154,362.7986,51.261,367.262" style="stroke:#9D0012;stroke-width:0.7699999999999999;"/></g><!--link Person to Phone--><g id="link_Person_Phone"><path codeLine="47" d="M258.9404,321.4908 C221.7634,332.9778 150.8868,354.892 114.6408,366.092 " fill="none" id="Person-Phone" style="stroke:#9D0012;stroke-width:0.7699999999999999;"/><polygon fill="#9D0012" points="266.966,319.011,262.1266,317.5757,258.9404,321.4908,263.7798,322.9261,266.966,319.011" style="stroke:#9D0012;stroke-width:0.7699999999999999;"/><polygon fill="#9D0012" points="110.628,367.332,117.4738,368.1473,113.972,366.2987,115.8206,362.7969,110.628,367.332" style="stroke:#9D0012;stroke-width:0.7699999999999999;"/></g><!--link Person to Email--><g id="link_Person_Email"><path codeLine="48" d="M259.1585,325.0807 C233.4545,336.5817 199.141,351.9322 174.053,363.1532 " fill="none" id="Person-Email" style="stroke:#9D0012;stroke-width:0.7699999999999999;"/><polygon fill="#9D0012" points="266.826,321.65,261.8487,320.8095,259.1585,325.0807,264.1358,325.9212,266.826,321.65" style="stroke:#9D0012;stroke-width:0.7699999999999999;"/><polygon fill="#9D0012" points="170.219,364.868,177.1132,364.8518,173.414,363.439,174.8268,359.7398,170.219,364.868" style="stroke:#9D0012;stroke-width:0.7699999999999999;"/></g><!--link Person to Company--><g id="link_Person_Company"><path codeLine="49" d="M269.5261,327.6292 C256.9541,338.8782 244.6709,349.8652 232.0849,361.1352 " fill="none" id="Person-Company" style="stroke:#9D0012;stroke-width:0.7699999999999999;"/><polygon fill="#9D0012" points="275.786,322.028,270.789,322.7419,269.5261,327.6292,274.5231,326.9152,275.786,322.028" style="stroke:#9D0012;stroke-width:0.7699999999999999;"/><polygon fill="#9D0012" points="228.956,363.937,235.5172,361.8203,231.5634,361.6022,231.7815,357.6484,228.956,363.937" style="stroke:#9D0012;stroke-width:0.7699999999999999;"/></g><!--link Person to Job--><g id="link_Person_Job"><path codeLine="50" d="M285.6,330.428 C285.6,341.677 285.6,348.467 285.6,359.737 " fill="none" id="Person-Job" style="stroke:#9D0012;stroke-width:0.7699999999999999;"/><polygon fill="#9D0012" points="285.6,322.028,282.8,326.228,285.6,330.428,288.4,326.228,285.6,322.028" style="stroke:#9D0012;stroke-width:0.7699999999999999;"/><polygon fill="#9D0012" points="285.6,363.937,288.4,357.637,285.6,360.437,282.8,357.637,285.6,363.937" style="stroke:#9D0012;stroke-width:0.7699999999999999;"/></g><!--link Person to Tag--><g id="link_Person_Tag"><path codeLine="51" d="M312.557,312.55 C320.824,312.55 316.498,312.55 324.765,312.55 " fill="none" id="Person-Tag" style="stroke:#9D0012;stroke-width:0.7699999999999999;"/><polygon fill="#9D0012" points="304.157,312.55,308.357,315.35,312.557,312.55,308.357,309.75,304.157,312.55" style="stroke:#9D0012;stroke-width:0.7699999999999999;"/><polygon fill="#9D0012" points="328.965,312.55,322.665,309.75,325.465,312.55,322.665,315.35,328.965,312.55" style="stroke:#9D0012;stroke-width:0.7699999999999999;"/><text fill="#000000" font-family="sans-serif" font-size="9.1" font-weight="bold" lengthAdjust="spacing" textLength="3.5" x="319.8" y="308.7768">*</text></g><!--link Person to Mark--><g id="link_Person_Mark"><path codeLine="52" d="M300.3177,327.9677 C311.5667,339.2167 322.0472,349.6972 333.3172,360.9672 " fill="none" id="Person-Mark" style="stroke:#9D0012;stroke-width:0.7699999999999999;"/><polygon fill="#9D0012" points="294.378,322.028,295.3679,326.9777,300.3177,327.9677,299.3277,323.0179,294.378,322.028" style="stroke:#9D0012;stroke-width:0.7699999999999999;"/><polygon fill="#9D0012" points="336.287,363.937,333.8121,357.5023,333.8121,361.4621,329.8523,361.4621,336.287,363.937" style="stroke:#9D0012;stroke-width:0.7699999999999999;"/></g><!--link LastModifiedDateTime to Person--><g id="link_LastModifiedDateTime_Person"><path codeLine="53" d="M246.904,312.55 C254.947,312.55 250.39,312.55 258.433,312.55 " fill="none" id="LastModifiedDateTime-Person" style="stroke:#9D0012;stroke-width:0.7699999999999999;"/><polygon fill="#9D0012" points="242.704,312.55,249.004,315.35,246.204,312.55,249.004,309.75,242.704,312.55" style="stroke:#9D0012;stroke-width:0.7699999999999999;"/><polygon fill="#9D0012" points="266.833,312.55,262.633,309.75,258.433,312.55,262.633,315.35,266.833,312.55" style="stroke:#9D0012;stroke-width:0.7699999999999999;"/></g><!--link Person to Note--><g id="link_Person_Note"><path codeLine="54" d="M310.6697,325.7837 C333.1747,337.0327 360.6776,350.7882 383.2106,362.0582 " fill="none" id="Person-Note" style="stroke:#9D0012;stroke-width:0.7699999999999999;"/><polygon fill="#9D0012" points="303.156,322.028,305.6609,326.4104,310.6697,325.7837,308.1647,321.4013,303.156,322.028" style="stroke:#9D0012;stroke-width:0.7699999999999999;"/><polygon fill="#9D0012" points="386.967,363.937,382.585,358.6146,383.8367,362.3714,380.0799,363.6231,386.967,363.937" style="stroke:#9D0012;stroke-width:0.7699999999999999;"/></g><!--link Person to Schedule--><g id="link_Person_Schedule"><path codeLine="55" d="M312.335,321.8578 C346.194,332.7568 405.5092,351.8555 442.7002,363.8325 " fill="none" id="Person-Schedule" style="stroke:#9D0012;stroke-width:0.7699999999999999;"/><polygon fill="#9D0012" points="304.339,319.284,307.479,323.2362,312.335,321.8578,309.1949,317.9056,304.339,319.284" style="stroke:#9D0012;stroke-width:0.7699999999999999;"/><polygon fill="#9D0012" points="446.698,365.12,441.5596,360.5236,443.3665,364.0471,439.843,365.854,446.698,365.12" style="stroke:#9D0012;stroke-width:0.7699999999999999;"/><text fill="#000000" font-family="sans-serif" font-size="9.1" font-weight="bold" lengthAdjust="spacing" textLength="15.4" x="425.9008" y="360.6175">0..1</text></g><!--link Person to ScheduleName--><g id="link_Person_ScheduleName"><path codeLine="56" d="M312.3022,320.8575 C316.5302,322.0265 312.907,320.971 317.1,322 C387.982,339.36 467.4197,355.5257 514.5087,364.7727 " fill="none" id="Person-ScheduleName" style="stroke:#9D0012;stroke-width:0.7699999999999999;"/><polygon fill="#9D0012" points="304.206,318.619,307.5079,322.437,312.3022,320.8575,309.0003,317.0395,304.206,318.619" style="stroke:#9D0012;stroke-width:0.7699999999999999;"/><polygon fill="#9D0012" points="518.63,365.582,512.9876,361.6205,515.1956,364.9076,511.9085,367.1156,518.63,365.582" style="stroke:#9D0012;stroke-width:0.7699999999999999;"/><text fill="#000000" font-family="sans-serif" font-size="9.1" font-weight="bold" lengthAdjust="spacing" textLength="15.4" x="497.7615" y="361.8405">0..1</text></g><!--reverse link I to Person--><!--link UniquePersonList to I--><!--link Name to Phone--><!--link Phone to Email--><!--link Email to Company--><!--link ModelManager to Person--><!--link ModelManager to Person--><g id="link_ModelManager_Person"><path codeLine="66" d="M334.642,157.626 C337.344,170.947 333.585,196.833 328.3,218.4 C320.551,250.019 309.984,283.0117 298.679,299.4897 " fill="none" id="ModelManager-to-Person-1" style="stroke:#9D0012;stroke-width:0.7699999999999999;"/><polygon fill="#9D0012" points="296.303,302.953,302.1759,299.3421,298.283,300.0669,297.5582,296.174,296.303,302.953" style="stroke:#9D0012;stroke-width:0.7699999999999999;"/></g><!--SRC=[XLHDZziW4BtxLr3t5YbMSuyiTRDRDLMoZjBqrAqgQiOs2WONR5LHFtvx0OCNVsph0u8tRnx3p9DVKPwpZW1IxOr1qdGrYzILyWPBN2CifVXngMX-vQ0KsYIRQN0dc93ecDq_7BxkiaDs3WWvmqhTuVnQIj5nCgT69nt49Q2Z8C0GLlt6ezlj6V8Myv91clwCTaOEnTijvIt80kSQVU9dm2JZxFQM4Abhl1FY6Xkb1Vm_2fyKo9E4Geto1_I5R5jnFDJkMFDRRVI8kNwOTD2pj0Su_Tx12QGI_41Lw-0US8U76bD_ooEkmNCgmVr-9-e6yvixVH3VtEw2IryCbhwk0rQjheqM5CWzRk521yr7qVhjnxm2qh7fqHRWi3rw_Sv-qMyFlQU40C-wLb7jC1yUeqcIkiv5GTDGqZN9htHnYb7OIa_i9NeV9PAMLPka2pDq10P560_LH-9hGrodADx4w6MIlSwndgyQTjEt16CFNxnQUucf2-Oi0grs0P2UXEmNUvzCyv59SJ6NO5Niy4AWzr28z6OB4U-j43CE6yws6Rh4LMpz5lAiwmR0j3PTjj-eIcF248ZV98dkqk38VyHwUph2-dDbZVUbQmnrlz0dp_03tKT6OOwxHfbr7knxPjTvqBTlOkA1PzxmPuKAolGl1iWmqp5RirpWBm00]--></g></svg>