<?xml version="1.0" encoding="us-ascii" standalone="no"?><svg xmlns="http://www.w3.org/2000/svg" xmlns:xlink="http://www.w3.org/1999/xlink" contentStyleType="text/css" height="628px" preserveAspectRatio="none" style="width:1325px;height:628px;background:#FFFFFF;" version="1.1" viewBox="0 0 1325 628" width="1325px" zoomAndPan="magnify"><defs/><g><rect fill="#C8C8FA" height="609.0156" style="stroke:#181818;stroke-width:0.5;" width="1073.5" x="152" y="6"/><text fill="#FFFFFF" font-family="sans-serif" font-size="13" font-weight="bold" lengthAdjust="spacing" textLength="35" x="669.25" y="20.0283">Logic</text><rect fill="#F97181" height="609.0156" style="stroke:#181818;stroke-width:0.5;" width="92" x="1227.5" y="6"/><text fill="#FFFFFF" font-family="sans-serif" font-size="13" font-weight="bold" lengthAdjust="spacing" textLength="39" x="1252" y="20.0283">Model</text><rect fill="#FFFFFF" height="508.8125" style="stroke:#181818;stroke-width:1.0;" width="10" x="215" y="94.2031"/><rect fill="#FFFFFF" height="298.0273" style="stroke:#181818;stroke-width:1.0;" width="10" x="485" y="125.4941"/><rect fill="#FFFFFF" height="33.6211" style="stroke:#181818;stroke-width:1.0;" width="10" x="667" y="149.4941"/><rect fill="#FFFFFF" height="163.8242" style="stroke:#181818;stroke-width:1.0;" width="10" x="667" y="214.4063"/><rect fill="#FFFFFF" height="33.6211" style="stroke:#181818;stroke-width:1.0;" width="10" x="833" y="313.3184"/><rect fill="#FFFFFF" height="134.2031" style="stroke:#181818;stroke-width:1.0;" width="10" x="833" y="454.8125"/><rect fill="#FFFFFF" height="33.6211" style="stroke:#181818;stroke-width:1.0;" width="10" x="983.5" y="524.1035"/><rect fill="#FFFFFF" height="16.3301" style="stroke:#181818;stroke-width:1.0;" width="10" x="1140.5" y="255.6973"/><rect fill="#FFFFFF" height="14" style="stroke:#181818;stroke-width:1.0;" width="10" x="1268.5" y="486.1035"/><line style="stroke:#181818;stroke-width:0.5;stroke-dasharray:5.0,5.0;" x1="220" x2="220" y1="60.9121" y2="621.0156"/><line style="stroke:#181818;stroke-width:0.5;stroke-dasharray:5.0,5.0;" x1="490" x2="490" y1="60.9121" y2="621.0156"/><line style="stroke:#181818;stroke-width:0.5;stroke-dasharray:5.0,5.0;" x1="671.5" x2="671.5" y1="165.3047" y2="621.0156"/><line style="stroke:#181818;stroke-width:0.5;stroke-dasharray:5.0,5.0;" x1="837.5" x2="837.5" y1="311.8379" y2="621.0156"/><line style="stroke:#181818;stroke-width:0.5;stroke-dasharray:5.0,5.0;" x1="988.5" x2="988.5" y1="539.9141" y2="621.0156"/><line style="stroke:#181818;stroke-width:0.5;stroke-dasharray:5.0,5.0;" x1="1145.5" x2="1145.5" y1="254.2168" y2="621.0156"/><line style="stroke:#181818;stroke-width:0.5;stroke-dasharray:5.0,5.0;" x1="1273.5" x2="1273.5" y1="60.9121" y2="621.0156"/><rect fill="#3333C4" height="32.6211" rx="2.5" ry="2.5" style="stroke:#181818;stroke-width:0.5;" width="108" x="166" y="27.291"/><text fill="#FFFFFF" font-family="sans-serif" font-size="14" lengthAdjust="spacing" textLength="94" x="173" y="49.3984">:LogicManager</text><rect fill="#3333C4" height="32.6211" rx="2.5" ry="2.5" style="stroke:#181818;stroke-width:0.5;" width="144" x="418" y="27.291"/><text fill="#FFFFFF" font-family="sans-serif" font-size="14" lengthAdjust="spacing" textLength="130" x="425" y="49.3984">:AddressBookParser</text><rect fill="#9D0012" height="32.6211" rx="2.5" ry="2.5" style="stroke:#181818;stroke-width:0.5;" width="64" x="1241.5" y="27.291"/><text fill="#FFFFFF" font-family="sans-serif" font-size="14" lengthAdjust="spacing" textLength="42" x="1252.5" y="49.3984">:Model</text><rect fill="#FFFFFF" height="508.8125" style="stroke:#181818;stroke-width:1.0;" width="10" x="215" y="94.2031"/><rect fill="#FFFFFF" height="298.0273" style="stroke:#181818;stroke-width:1.0;" width="10" x="485" y="125.4941"/><rect fill="#FFFFFF" height="33.6211" style="stroke:#181818;stroke-width:1.0;" width="10" x="667" y="149.4941"/><rect fill="#FFFFFF" height="163.8242" style="stroke:#181818;stroke-width:1.0;" width="10" x="667" y="214.4063"/><rect fill="#FFFFFF" height="33.6211" style="stroke:#181818;stroke-width:1.0;" width="10" x="833" y="313.3184"/><rect fill="#FFFFFF" height="134.2031" style="stroke:#181818;stroke-width:1.0;" width="10" x="833" y="454.8125"/><rect fill="#FFFFFF" height="33.6211" style="stroke:#181818;stroke-width:1.0;" width="10" x="983.5" y="524.1035"/><rect fill="#FFFFFF" height="16.3301" style="stroke:#181818;stroke-width:1.0;" width="10" x="1140.5" y="255.6973"/><rect fill="#FFFFFF" height="14" style="stroke:#181818;stroke-width:1.0;" width="10" x="1268.5" y="486.1035"/><polygon fill="#181818" points="203,90.2031,213,94.2031,203,98.2031,207,94.2031" style="stroke:#181818;stroke-width:1.0;"/><line style="stroke:#181818;stroke-width:1.0;" x1="0" x2="209" y1="94.2031" y2="94.2031"/><text fill="#000000" font-family="sans-serif" font-size="13" lengthAdjust="spacing" textLength="196" x="9.5" y="88.9404">execute("note 1 o/This is a note!")</text><polygon fill="#181818" points="473,121.4941,483,125.4941,473,129.4941,477,125.4941" style="stroke:#181818;stroke-width:1.0;"/><line style="stroke:#181818;stroke-width:1.0;" x1="225" x2="479" y1="125.4941" y2="125.4941"/><text fill="#000000" font-family="sans-serif" font-size="13" lengthAdjust="spacing" textLength="241" x="234.5" y="120.2314">parseCommand("note 1 o/This is a note!")</text><polygon fill="#181818" points="583.5,135.4941,593.5,139.4941,583.5,143.4941,587.5,139.4941" style="stroke:#181818;stroke-width:1.0;"/><line style="stroke:#181818;stroke-width:1.0;" x1="495" x2="589.5" y1="139.4941" y2="139.4941"/><rect fill="#3333C4" height="32.6211" rx="2.5" ry="2.5" style="stroke:#181818;stroke-width:0.5;" width="153" x="595.5" y="133.4941"/><text fill="#FFFFFF" font-family="sans-serif" font-size="14" lengthAdjust="spacing" textLength="139" x="602.5" y="155.6016">:NoteCommandParser</text><polygon fill="#181818" points="506,179.1152,496,183.1152,506,187.1152,502,183.1152" style="stroke:#181818;stroke-width:1.0;"/><line style="stroke:#181818;stroke-width:1.0;stroke-dasharray:2.0,2.0;" x1="500" x2="671" y1="183.1152" y2="183.1152"/><polygon fill="#181818" points="655,210.4063,665,214.4063,655,218.4063,659,214.4063" style="stroke:#181818;stroke-width:1.0;"/><line style="stroke:#181818;stroke-width:1.0;" x1="495" x2="661" y1="214.4063" y2="214.4063"/><text fill="#000000" font-family="sans-serif" font-size="13" lengthAdjust="spacing" textLength="153" x="504.5" y="209.1436">parse("1 o/This is a note!")</text><polygon fill="#181818" points="1067.5,241.6973,1077.5,245.6973,1067.5,249.6973,1071.5,245.6973" style="stroke:#181818;stroke-width:1.0;"/><line style="stroke:#181818;stroke-width:1.0;" x1="677" x2="1073.5" y1="245.6973" y2="245.6973"/><text fill="#000000" font-family="sans-serif" font-size="13" lengthAdjust="spacing" textLength="157" x="799.75" y="240.4346">note, lastModifiedDateTime</text><rect fill="#3333C4" height="32.6211" rx="2.5" ry="2.5" style="stroke:#181818;stroke-width:0.5;" width="132" x="1079.5" y="222.4063"/><text fill="#FFFFFF" font-family="sans-serif" font-size="14" lengthAdjust="spacing" textLength="118" x="1086.5" y="244.5137">nd: NoteDescriptor</text><polygon fill="#181818" points="688,268.0273,678,272.0273,688,276.0273,684,272.0273" style="stroke:#181818;stroke-width:1.0;"/><line style="stroke:#181818;stroke-width:1.0;stroke-dasharray:2.0,2.0;" x1="682" x2="1144.5" y1="272.0273" y2="272.0273"/><polygon fill="#181818" points="766.5,299.3184,776.5,303.3184,766.5,307.3184,770.5,303.3184" style="stroke:#181818;stroke-width:1.0;"/><line style="stroke:#181818;stroke-width:1.0;" x1="677" x2="772.5" y1="303.3184" y2="303.3184"/><text fill="#000000" font-family="sans-serif" font-size="13" lengthAdjust="spacing" textLength="53" x="701.25" y="298.0557">index, nd</text><rect fill="#3333C4" height="32.6211" rx="2.5" ry="2.5" style="stroke:#181818;stroke-width:0.5;" width="119" x="778.5" y="280.0273"/><text fill="#FFFFFF" font-family="sans-serif" font-size="14" lengthAdjust="spacing" textLength="105" x="785.5" y="302.1348">n:NoteCommand</text><polygon fill="#181818" points="688,342.9395,678,346.9395,688,350.9395,684,346.9395" style="stroke:#181818;stroke-width:1.0;"/><line style="stroke:#181818;stroke-width:1.0;stroke-dasharray:2.0,2.0;" x1="682" x2="837" y1="346.9395" y2="346.9395"/><text fill="#000000" font-family="sans-serif" font-size="13" lengthAdjust="spacing" textLength="7" x="754" y="341.6768">n</text><polygon fill="#181818" points="506,374.2305,496,378.2305,506,382.2305,502,378.2305" style="stroke:#181818;stroke-width:1.0;"/><line style="stroke:#181818;stroke-width:1.0;stroke-dasharray:2.0,2.0;" x1="500" x2="671" y1="378.2305" y2="378.2305"/><text fill="#000000" font-family="sans-serif" font-size="13" lengthAdjust="spacing" textLength="7" x="580" y="372.9678">n</text><line style="stroke:#A80036;stroke-width:2.0;" x1="663" x2="681" y1="383.2305" y2="401.2305"/><line style="stroke:#A80036;stroke-width:2.0;" x1="663" x2="681" y1="401.2305" y2="383.2305"/><polygon fill="#181818" points="236,419.5215,226,423.5215,236,427.5215,232,423.5215" style="stroke:#181818;stroke-width:1.0;"/><line style="stroke:#181818;stroke-width:1.0;stroke-dasharray:2.0,2.0;" x1="230" x2="489" y1="423.5215" y2="423.5215"/><text fill="#000000" font-family="sans-serif" font-size="13" lengthAdjust="spacing" textLength="7" x="354" y="418.2588">n</text><polygon fill="#181818" points="821,450.8125,831,454.8125,821,458.8125,825,454.8125" style="stroke:#181818;stroke-width:1.0;"/><line style="stroke:#181818;stroke-width:1.0;" x1="225" x2="827" y1="454.8125" y2="454.8125"/><text fill="#000000" font-family="sans-serif" font-size="13" lengthAdjust="spacing" textLength="54" x="502" y="449.5498">execute()</text><polygon fill="#181818" points="1256.5,482.1035,1266.5,486.1035,1256.5,490.1035,1260.5,486.1035" style="stroke:#181818;stroke-width:1.0;"/><line style="stroke:#181818;stroke-width:1.0;" x1="843" x2="1262.5" y1="486.1035" y2="486.1035"/><text fill="#000000" font-family="sans-serif" font-size="13" lengthAdjust="spacing" textLength="106" x="1002.75" y="480.8408">setPerson(person)</text><polygon fill="#181818" points="854,496.1035,844,500.1035,854,504.1035,850,500.1035" style="stroke:#181818;stroke-width:1.0;"/><line style="stroke:#181818;stroke-width:1.0;stroke-dasharray:2.0,2.0;" x1="848" x2="1272.5" y1="500.1035" y2="500.1035"/><polygon fill="#181818" points="915.5,510.1035,925.5,514.1035,915.5,518.1035,919.5,514.1035" style="stroke:#181818;stroke-width:1.0;"/><line style="stroke:#181818;stroke-width:1.0;" x1="843" x2="921.5" y1="514.1035" y2="514.1035"/><rect fill="#3333C4" height="32.6211" rx="2.5" ry="2.5" style="stroke:#181818;stroke-width:0.5;" width="122" x="927.5" y="508.1035"/><text fill="#FFFFFF" font-family="sans-serif" font-size="14" lengthAdjust="spacing" textLength="108" x="934.5" y="530.2109">:CommandResult</text><polygon fill="#181818" points="854,553.7246,844,557.7246,854,561.7246,850,557.7246" style="stroke:#181818;stroke-width:1.0;"/><line style="stroke:#181818;stroke-width:1.0;stroke-dasharray:2.0,2.0;" x1="848" x2="987.5" y1="557.7246" y2="557.7246"/><polygon fill="#181818" points="236,585.0156,226,589.0156,236,593.0156,232,589.0156" style="stroke:#181818;stroke-width:1.0;"/><line style="stroke:#181818;stroke-width:1.0;stroke-dasharray:2.0,2.0;" x1="230" x2="837" y1="589.0156" y2="589.0156"/><text fill="#000000" font-family="sans-serif" font-size="13" lengthAdjust="spacing" textLength="32" x="515.5" y="583.7529">result</text><polygon fill="#181818" points="11,599.0156,1,603.0156,11,607.0156,7,603.0156" style="stroke:#181818;stroke-width:1.0;"/><line style="stroke:#181818;stroke-width:1.0;stroke-dasharray:2.0,2.0;" x1="5" x2="219" y1="603.0156" y2="603.0156"/><!--SRC=[ZLHHQzim47xNhxZwPIaq7Nqr8z0bQpT8bjBbBOoYMDT6n9QCf6pflvyiAwbbsPuX47FwlkzEzvtkYeiiFp84RTvpl2sFHKxqWOkIAbh0lLBoxuCKvbTr2cLEkI1a9q-mb6yyW-NwySVyPRvUhfzVDdV4aWpFU4c5WIHra1KLz0rL0bH3Cz2ajdZtZ2dK-gkKXoUgj2T7qG65dzBWN1O55QoX44Nx5KHJeaqEQAtC7lAC-fWRHmmY0nbPwd8iK6UAbqRMDJ-Xqb84DBGLM0Tg6rQIOGwhzUBRiiy61t5Y4VX3QpkTXVQaW2VCZWOdYR1bmHt8pvizrs1_5AhGLN9DQ6Ru7sgFcrn2I21bfMFpKYYh3z-TSKaY5K8oXTL9P2s9CzeoOjX5EpuYyRnCkwv260wfZ2lat8z9yfyUT6IuTA4UbgwwP-T1IftY3UHK6piE_9KZMrZkXXVuaSGBUSwqitEDMtjuXndTjJJVKWfSC3pTW0LtNJAmeRkKwb8z9emsSK33t_VJTyuO2g3LIWGZePIQ6sxxO_O83BLHyXqAgWvMROTv1R87rGkJh-xJYrUK7LMtNQLjzox9xvuvgtEC6xBuGGSNx7XBxKSRsdHU1zTZR9hvNPE2HbEFnwHqVmswWrJZMsDRtZQBzKW_Ny56RUSD3oyAOPY4ItaWSulNdiLMXrKDwvl5xPVfD5YK3M0G_mS0]--></g></svg>